<mxfile host="app.diagrams.net" modified="2023-06-21T17:57:46.225Z" agent="Mozilla/5.0 (X11; Ubuntu; Linux x86_64; rv:109.0) Gecko/20100101 Firefox/113.0" etag="Yp5Kdt3BjVkdPQ3OkFTt" version="21.5.0" type="device">
  <diagram name="Page-1" id="2YBvvXClWsGukQMizWep">
    <mxGraphModel dx="1391" dy="2171" grid="1" gridSize="10" guides="1" tooltips="1" connect="1" arrows="1" fold="1" page="1" pageScale="1" pageWidth="850" pageHeight="1100" math="0" shadow="0">
      <root>
        <mxCell id="0" />
        <mxCell id="1" parent="0" />
        <mxCell id="aM9ryv3xv72pqoxQDRHE-1" value="Scenario Simulator v2" style="shape=umlLifeline;perimeter=lifelinePerimeter;whiteSpace=wrap;html=1;container=0;dropTarget=0;collapsible=0;recursiveResize=0;outlineConnect=0;portConstraint=eastwest;newEdgeStyle={&quot;edgeStyle&quot;:&quot;elbowEdgeStyle&quot;,&quot;elbow&quot;:&quot;vertical&quot;,&quot;curved&quot;:0,&quot;rounded&quot;:0};rounded=1;strokeWidth=2;fillColor=#1ba1e2;strokeColor=#006EAF;fontColor=#000000;" parent="1" vertex="1">
          <mxGeometry x="40" y="-20" width="100" height="920" as="geometry" />
        </mxCell>
        <mxCell id="aM9ryv3xv72pqoxQDRHE-5" value="AWSIM" style="shape=umlLifeline;perimeter=lifelinePerimeter;whiteSpace=wrap;html=1;container=0;dropTarget=0;collapsible=0;recursiveResize=0;outlineConnect=0;portConstraint=eastwest;newEdgeStyle={&quot;edgeStyle&quot;:&quot;elbowEdgeStyle&quot;,&quot;elbow&quot;:&quot;vertical&quot;,&quot;curved&quot;:0,&quot;rounded&quot;:0};rounded=1;movable=1;resizable=1;rotatable=1;deletable=1;editable=1;locked=0;connectable=1;strokeWidth=2;perimeterSpacing=1;fillColor=#f5f5f5;strokeColor=#666666;fontColor=#333333;" parent="1" vertex="1">
          <mxGeometry x="250" y="-20" width="100" height="920" as="geometry" />
        </mxCell>
        <mxCell id="aM9ryv3xv72pqoxQDRHE-6" value="" style="html=1;points=[];perimeter=orthogonalPerimeter;outlineConnect=0;targetShapes=umlLifeline;portConstraint=eastwest;newEdgeStyle={&quot;edgeStyle&quot;:&quot;elbowEdgeStyle&quot;,&quot;elbow&quot;:&quot;vertical&quot;,&quot;curved&quot;:0,&quot;rounded&quot;:0};" parent="aM9ryv3xv72pqoxQDRHE-5" vertex="1">
          <mxGeometry x="45" y="60" width="10" height="30" as="geometry" />
        </mxCell>
        <mxCell id="EQ3Dm5uXD2tHN3N2Dx7K-4" value="SpawnVehicleEntityRequest" style="html=1;verticalAlign=bottom;endArrow=classicThin;edgeStyle=elbowEdgeStyle;elbow=vertical;curved=0;rounded=0;endFill=1;fillColor=#e1d5e7;strokeColor=#9673a6;strokeWidth=1.2;" edge="1" parent="aM9ryv3xv72pqoxQDRHE-5" source="aM9ryv3xv72pqoxQDRHE-1">
          <mxGeometry relative="1" as="geometry">
            <mxPoint x="-129.66" y="140" as="sourcePoint" />
            <Array as="points">
              <mxPoint x="-110" y="130" />
            </Array>
            <mxPoint x="45" y="130" as="targetPoint" />
          </mxGeometry>
        </mxCell>
        <mxCell id="EQ3Dm5uXD2tHN3N2Dx7K-3" value="" style="html=1;points=[];perimeter=orthogonalPerimeter;outlineConnect=0;targetShapes=umlLifeline;portConstraint=eastwest;newEdgeStyle={&quot;edgeStyle&quot;:&quot;elbowEdgeStyle&quot;,&quot;elbow&quot;:&quot;vertical&quot;,&quot;curved&quot;:0,&quot;rounded&quot;:0};strokeWidth=1.2;" vertex="1" parent="aM9ryv3xv72pqoxQDRHE-5">
          <mxGeometry x="45" y="129.72" width="10" height="30" as="geometry" />
        </mxCell>
        <mxCell id="EQ3Dm5uXD2tHN3N2Dx7K-5" value="SpawnVehicleEntityResponse" style="html=1;verticalAlign=bottom;endArrow=open;edgeStyle=elbowEdgeStyle;elbow=vertical;curved=0;rounded=0;dashed=1;fillColor=#e1d5e7;strokeColor=#9673a6;strokeWidth=1.2;endFill=0;" edge="1" parent="aM9ryv3xv72pqoxQDRHE-5" target="aM9ryv3xv72pqoxQDRHE-1">
          <mxGeometry relative="1" as="geometry">
            <mxPoint x="50" y="159.72" as="sourcePoint" />
            <Array as="points">
              <mxPoint x="-10" y="159.79" />
            </Array>
            <mxPoint x="-130.17647058823536" y="159.78999999999996" as="targetPoint" />
          </mxGeometry>
        </mxCell>
        <mxCell id="EQ3Dm5uXD2tHN3N2Dx7K-9" value="" style="html=1;points=[];perimeter=orthogonalPerimeter;outlineConnect=0;targetShapes=umlLifeline;portConstraint=eastwest;newEdgeStyle={&quot;edgeStyle&quot;:&quot;elbowEdgeStyle&quot;,&quot;elbow&quot;:&quot;vertical&quot;,&quot;curved&quot;:0,&quot;rounded&quot;:0};strokeWidth=1.2;" vertex="1" parent="aM9ryv3xv72pqoxQDRHE-5">
          <mxGeometry x="45" y="190" width="10" height="30" as="geometry" />
        </mxCell>
        <mxCell id="EQ3Dm5uXD2tHN3N2Dx7K-11" value="AttachLidarSensorResponse" style="html=1;verticalAlign=bottom;endArrow=open;edgeStyle=elbowEdgeStyle;elbow=vertical;curved=0;rounded=0;dashed=1;fillColor=#f8cecc;strokeColor=#b85450;strokeWidth=1.2;endFill=0;" edge="1" parent="aM9ryv3xv72pqoxQDRHE-5" target="aM9ryv3xv72pqoxQDRHE-1">
          <mxGeometry relative="1" as="geometry">
            <mxPoint x="50" y="220" as="sourcePoint" />
            <Array as="points">
              <mxPoint x="-10" y="220.07" />
            </Array>
            <mxPoint x="-130.17647058823536" y="220.06999999999994" as="targetPoint" />
          </mxGeometry>
        </mxCell>
        <mxCell id="EQ3Dm5uXD2tHN3N2Dx7K-12" value="" style="html=1;points=[];perimeter=orthogonalPerimeter;outlineConnect=0;targetShapes=umlLifeline;portConstraint=eastwest;newEdgeStyle={&quot;edgeStyle&quot;:&quot;elbowEdgeStyle&quot;,&quot;elbow&quot;:&quot;vertical&quot;,&quot;curved&quot;:0,&quot;rounded&quot;:0};strokeWidth=1.2;" vertex="1" parent="aM9ryv3xv72pqoxQDRHE-5">
          <mxGeometry x="45" y="250" width="10" height="30" as="geometry" />
        </mxCell>
        <mxCell id="EQ3Dm5uXD2tHN3N2Dx7K-13" value="AttachDetectionSensorResponse" style="html=1;verticalAlign=bottom;endArrow=open;edgeStyle=elbowEdgeStyle;elbow=vertical;curved=0;rounded=0;dashed=1;fillColor=#f8cecc;strokeColor=#b85450;strokeWidth=1.2;endFill=0;" edge="1" parent="aM9ryv3xv72pqoxQDRHE-5" target="aM9ryv3xv72pqoxQDRHE-1">
          <mxGeometry relative="1" as="geometry">
            <mxPoint x="50" y="280" as="sourcePoint" />
            <Array as="points">
              <mxPoint x="-10" y="280.07" />
            </Array>
            <mxPoint x="-130" y="280" as="targetPoint" />
          </mxGeometry>
        </mxCell>
        <mxCell id="EQ3Dm5uXD2tHN3N2Dx7K-74" value="" style="html=1;points=[];perimeter=orthogonalPerimeter;outlineConnect=0;targetShapes=umlLifeline;portConstraint=eastwest;newEdgeStyle={&quot;edgeStyle&quot;:&quot;elbowEdgeStyle&quot;,&quot;elbow&quot;:&quot;vertical&quot;,&quot;curved&quot;:0,&quot;rounded&quot;:0};strokeWidth=1.2;" vertex="1" parent="aM9ryv3xv72pqoxQDRHE-5">
          <mxGeometry x="45" y="310.07" width="10" height="30" as="geometry" />
        </mxCell>
        <mxCell id="EQ3Dm5uXD2tHN3N2Dx7K-75" value="AttachOccupancyGridSensorResponse" style="html=1;verticalAlign=bottom;endArrow=open;edgeStyle=elbowEdgeStyle;elbow=vertical;curved=0;rounded=0;dashed=1;fillColor=#f8cecc;strokeColor=#b85450;strokeWidth=1.2;endFill=0;" edge="1" parent="aM9ryv3xv72pqoxQDRHE-5" target="aM9ryv3xv72pqoxQDRHE-1">
          <mxGeometry relative="1" as="geometry">
            <mxPoint x="50" y="340.07" as="sourcePoint" />
            <Array as="points">
              <mxPoint x="-10" y="340.14" />
            </Array>
            <mxPoint x="-130" y="340.07" as="targetPoint" />
          </mxGeometry>
        </mxCell>
        <mxCell id="EQ3Dm5uXD2tHN3N2Dx7K-30" value="" style="html=1;points=[];perimeter=orthogonalPerimeter;outlineConnect=0;targetShapes=umlLifeline;portConstraint=eastwest;newEdgeStyle={&quot;edgeStyle&quot;:&quot;elbowEdgeStyle&quot;,&quot;elbow&quot;:&quot;vertical&quot;,&quot;curved&quot;:0,&quot;rounded&quot;:0};strokeWidth=1.2;" vertex="1" parent="aM9ryv3xv72pqoxQDRHE-5">
          <mxGeometry x="45" y="380" width="10" height="30" as="geometry" />
        </mxCell>
        <mxCell id="EQ3Dm5uXD2tHN3N2Dx7K-32" value="" style="html=1;points=[];perimeter=orthogonalPerimeter;outlineConnect=0;targetShapes=umlLifeline;portConstraint=eastwest;newEdgeStyle={&quot;edgeStyle&quot;:&quot;elbowEdgeStyle&quot;,&quot;elbow&quot;:&quot;vertical&quot;,&quot;curved&quot;:0,&quot;rounded&quot;:0};strokeWidth=1.2;" vertex="1" parent="aM9ryv3xv72pqoxQDRHE-5">
          <mxGeometry x="45" y="460" width="10" height="30" as="geometry" />
        </mxCell>
        <mxCell id="EQ3Dm5uXD2tHN3N2Dx7K-40" value="" style="html=1;points=[];perimeter=orthogonalPerimeter;outlineConnect=0;targetShapes=umlLifeline;portConstraint=eastwest;newEdgeStyle={&quot;edgeStyle&quot;:&quot;elbowEdgeStyle&quot;,&quot;elbow&quot;:&quot;vertical&quot;,&quot;curved&quot;:0,&quot;rounded&quot;:0};strokeWidth=1.2;" vertex="1" parent="aM9ryv3xv72pqoxQDRHE-5">
          <mxGeometry x="45" y="560" width="10" height="30" as="geometry" />
        </mxCell>
        <mxCell id="EQ3Dm5uXD2tHN3N2Dx7K-68" value="" style="html=1;points=[];perimeter=orthogonalPerimeter;outlineConnect=0;targetShapes=umlLifeline;portConstraint=eastwest;newEdgeStyle={&quot;edgeStyle&quot;:&quot;elbowEdgeStyle&quot;,&quot;elbow&quot;:&quot;vertical&quot;,&quot;curved&quot;:0,&quot;rounded&quot;:0};strokeWidth=1.2;" vertex="1" parent="aM9ryv3xv72pqoxQDRHE-5">
          <mxGeometry x="45" y="780" width="10" height="30" as="geometry" />
        </mxCell>
        <mxCell id="EQ3Dm5uXD2tHN3N2Dx7K-64" value="" style="html=1;points=[];perimeter=orthogonalPerimeter;outlineConnect=0;targetShapes=umlLifeline;portConstraint=eastwest;newEdgeStyle={&quot;edgeStyle&quot;:&quot;elbowEdgeStyle&quot;,&quot;elbow&quot;:&quot;vertical&quot;,&quot;curved&quot;:0,&quot;rounded&quot;:0};strokeWidth=1.2;" vertex="1" parent="aM9ryv3xv72pqoxQDRHE-5">
          <mxGeometry x="45" y="869.17" width="10" height="30" as="geometry" />
        </mxCell>
        <mxCell id="EQ3Dm5uXD2tHN3N2Dx7K-65" value="DespawnEntityResponse" style="html=1;verticalAlign=bottom;endArrow=open;edgeStyle=elbowEdgeStyle;elbow=vertical;curved=0;rounded=0;dashed=1;strokeWidth=1.2;endFill=0;" edge="1" parent="aM9ryv3xv72pqoxQDRHE-5">
          <mxGeometry relative="1" as="geometry">
            <mxPoint x="50" y="899.17" as="sourcePoint" />
            <Array as="points">
              <mxPoint x="-10" y="899.24" />
            </Array>
            <mxPoint x="-159.83333333333326" y="899.2400000000001" as="targetPoint" />
          </mxGeometry>
        </mxCell>
        <mxCell id="EQ3Dm5uXD2tHN3N2Dx7K-18" value="opt" style="shape=umlFrame;whiteSpace=wrap;html=1;pointerEvents=0;fillColor=#e1d5e7;strokeColor=#9673a6;" vertex="1" parent="1">
          <mxGeometry x="10" y="330" width="300" height="70" as="geometry" />
        </mxCell>
        <mxCell id="EQ3Dm5uXD2tHN3N2Dx7K-37" value="loop" style="shape=umlFrame;whiteSpace=wrap;html=1;pointerEvents=0;" vertex="1" parent="1">
          <mxGeometry x="-10" y="80" width="340" height="410" as="geometry" />
        </mxCell>
        <mxCell id="EQ3Dm5uXD2tHN3N2Dx7K-38" value="opt" style="shape=umlFrame;whiteSpace=wrap;html=1;pointerEvents=0;fillColor=#e1d5e7;strokeColor=#9673a6;" vertex="1" parent="1">
          <mxGeometry x="10" y="410" width="300" height="70" as="geometry" />
        </mxCell>
        <mxCell id="EQ3Dm5uXD2tHN3N2Dx7K-44" value="UpdateEntityStatusResponse" style="html=1;verticalAlign=bottom;endArrow=open;edgeStyle=elbowEdgeStyle;elbow=vertical;curved=0;rounded=0;strokeWidth=1.2;endFill=0;fillColor=#e1d5e7;strokeColor=#9673a6;" edge="1" parent="1" source="EQ3Dm5uXD2tHN3N2Dx7K-43">
          <mxGeometry relative="1" as="geometry">
            <mxPoint x="290" y="701" as="sourcePoint" />
            <Array as="points">
              <mxPoint x="205" y="701.07" />
            </Array>
            <mxPoint x="90" y="701" as="targetPoint" />
          </mxGeometry>
        </mxCell>
        <mxCell id="EQ3Dm5uXD2tHN3N2Dx7K-60" value="Autoware" style="shape=umlLifeline;perimeter=lifelinePerimeter;whiteSpace=wrap;html=1;container=0;dropTarget=0;collapsible=0;recursiveResize=0;outlineConnect=0;portConstraint=eastwest;newEdgeStyle={&quot;edgeStyle&quot;:&quot;elbowEdgeStyle&quot;,&quot;elbow&quot;:&quot;vertical&quot;,&quot;curved&quot;:0,&quot;rounded&quot;:0};rounded=1;strokeWidth=2;fillColor=#d6f4fc;strokeColor=#6c8ebf;" vertex="1" parent="1">
          <mxGeometry x="425" y="-20" width="100" height="920" as="geometry" />
        </mxCell>
        <mxCell id="EQ3Dm5uXD2tHN3N2Dx7K-61" value="&lt;div&gt;loop&lt;/div&gt;" style="shape=umlFrame;whiteSpace=wrap;html=1;pointerEvents=0;" vertex="1" parent="1">
          <mxGeometry x="-10" y="510" width="520" height="290" as="geometry" />
        </mxCell>
        <mxCell id="EQ3Dm5uXD2tHN3N2Dx7K-62" value="&lt;div&gt;loop&lt;/div&gt;" style="shape=umlFrame;whiteSpace=wrap;html=1;pointerEvents=0;fillColor=#dae8fc;strokeColor=#6c8ebf;" vertex="1" parent="1">
          <mxGeometry x="10" y="580" width="490" height="150" as="geometry" />
        </mxCell>
        <mxCell id="EQ3Dm5uXD2tHN3N2Dx7K-66" value="&lt;div&gt;loop&lt;/div&gt;" style="shape=umlFrame;whiteSpace=wrap;html=1;pointerEvents=0;" vertex="1" parent="1">
          <mxGeometry x="-10" y="820" width="340" height="80" as="geometry" />
        </mxCell>
        <mxCell id="EQ3Dm5uXD2tHN3N2Dx7K-28" value="SpawnPedestrianEntityRequest" style="html=1;verticalAlign=bottom;endArrow=classicThin;edgeStyle=elbowEdgeStyle;elbow=vertical;curved=0;rounded=0;endFill=1;fillColor=#e1d5e7;strokeColor=#9673a6;strokeWidth=1.2;" edge="1" parent="1" target="EQ3Dm5uXD2tHN3N2Dx7K-30">
          <mxGeometry x="0.0009" relative="1" as="geometry">
            <mxPoint x="90.34" y="370.28" as="sourcePoint" />
            <Array as="points">
              <mxPoint x="110" y="360.28" />
            </Array>
            <mxPoint x="265" y="360.28" as="targetPoint" />
            <mxPoint as="offset" />
          </mxGeometry>
        </mxCell>
        <mxCell id="EQ3Dm5uXD2tHN3N2Dx7K-29" value="&lt;meta charset=&quot;utf-8&quot;&gt;&lt;span id=&quot;docs-internal-guid-1382f3e9-7fff-35ba-dd3f-cf477cd33359&quot; style=&quot;font-size: 8pt; font-family: Arial; color: rgb(0, 0, 0); background-color: transparent; font-weight: 400; font-style: normal; font-variant: normal; text-decoration: none; vertical-align: baseline;&quot;&gt;SpawnMiscObjectEntityRequest&lt;/span&gt;" style="html=1;verticalAlign=bottom;endArrow=classicThin;edgeStyle=elbowEdgeStyle;elbow=vertical;curved=0;rounded=0;endFill=1;fillColor=#e1d5e7;strokeColor=#9673a6;strokeWidth=1.2;" edge="1" parent="1" target="EQ3Dm5uXD2tHN3N2Dx7K-32">
          <mxGeometry relative="1" as="geometry">
            <mxPoint x="90" y="440" as="sourcePoint" />
            <Array as="points">
              <mxPoint x="180" y="440" />
            </Array>
          </mxGeometry>
        </mxCell>
        <mxCell id="EQ3Dm5uXD2tHN3N2Dx7K-31" value="SpawnPedestrianEntityResponse" style="html=1;verticalAlign=bottom;endArrow=open;edgeStyle=elbowEdgeStyle;elbow=vertical;curved=0;rounded=0;dashed=1;fillColor=#e1d5e7;strokeColor=#9673a6;strokeWidth=1.2;endFill=0;" edge="1" parent="1" source="EQ3Dm5uXD2tHN3N2Dx7K-30">
          <mxGeometry relative="1" as="geometry">
            <mxPoint x="270" y="390" as="sourcePoint" />
            <Array as="points">
              <mxPoint x="210" y="390.07000000000005" />
            </Array>
            <mxPoint x="90" y="390.28" as="targetPoint" />
          </mxGeometry>
        </mxCell>
        <mxCell id="EQ3Dm5uXD2tHN3N2Dx7K-33" value="SpawnMiscObjectEntityResponse" style="html=1;verticalAlign=bottom;endArrow=open;edgeStyle=elbowEdgeStyle;elbow=vertical;curved=0;rounded=0;dashed=1;fillColor=#e1d5e7;strokeColor=#9673a6;strokeWidth=1.2;endFill=0;" edge="1" parent="1" source="EQ3Dm5uXD2tHN3N2Dx7K-32">
          <mxGeometry relative="1" as="geometry">
            <mxPoint x="270" y="470" as="sourcePoint" />
            <Array as="points">
              <mxPoint x="210" y="470.07000000000005" />
            </Array>
            <mxPoint x="90" y="470" as="targetPoint" />
          </mxGeometry>
        </mxCell>
        <mxCell id="EQ3Dm5uXD2tHN3N2Dx7K-39" value="UpdateFrameRequest" style="html=1;verticalAlign=bottom;endArrow=classicThin;edgeStyle=elbowEdgeStyle;elbow=vertical;curved=0;rounded=0;endFill=1;strokeWidth=1.2;" edge="1" parent="1" target="EQ3Dm5uXD2tHN3N2Dx7K-40">
          <mxGeometry relative="1" as="geometry">
            <mxPoint x="90" y="540" as="sourcePoint" />
            <Array as="points">
              <mxPoint x="180" y="540" />
            </Array>
          </mxGeometry>
        </mxCell>
        <mxCell id="EQ3Dm5uXD2tHN3N2Dx7K-41" value="UpdateFrameResponse" style="html=1;verticalAlign=bottom;endArrow=open;edgeStyle=elbowEdgeStyle;elbow=vertical;curved=0;rounded=0;dashed=1;strokeWidth=1.2;endFill=0;" edge="1" parent="1" source="EQ3Dm5uXD2tHN3N2Dx7K-40">
          <mxGeometry relative="1" as="geometry">
            <mxPoint x="270" y="570" as="sourcePoint" />
            <Array as="points">
              <mxPoint x="210" y="570.07" />
            </Array>
            <mxPoint x="90" y="570" as="targetPoint" />
          </mxGeometry>
        </mxCell>
        <mxCell id="EQ3Dm5uXD2tHN3N2Dx7K-42" value="UpdateEntityStatusRequest" style="html=1;verticalAlign=bottom;endArrow=classicThin;edgeStyle=elbowEdgeStyle;elbow=vertical;curved=0;rounded=0;endFill=1;strokeWidth=1.2;fillColor=#e1d5e7;strokeColor=#9673a6;" edge="1" parent="1" target="EQ3Dm5uXD2tHN3N2Dx7K-43">
          <mxGeometry relative="1" as="geometry">
            <mxPoint x="90" y="611" as="sourcePoint" />
            <Array as="points">
              <mxPoint x="180" y="611" />
            </Array>
          </mxGeometry>
        </mxCell>
        <mxCell id="EQ3Dm5uXD2tHN3N2Dx7K-43" value="" style="html=1;points=[];perimeter=orthogonalPerimeter;outlineConnect=0;targetShapes=umlLifeline;portConstraint=eastwest;newEdgeStyle={&quot;edgeStyle&quot;:&quot;elbowEdgeStyle&quot;,&quot;elbow&quot;:&quot;vertical&quot;,&quot;curved&quot;:0,&quot;rounded&quot;:0};strokeWidth=1.2;" vertex="1" parent="1">
          <mxGeometry x="295" y="610" width="10" height="92" as="geometry" />
        </mxCell>
        <mxCell id="EQ3Dm5uXD2tHN3N2Dx7K-67" value="UpdateTrafficLightsRequest" style="html=1;verticalAlign=bottom;endArrow=classicThin;edgeStyle=elbowEdgeStyle;elbow=vertical;curved=0;rounded=0;endFill=1;strokeWidth=1.2;" edge="1" parent="1" target="EQ3Dm5uXD2tHN3N2Dx7K-68">
          <mxGeometry relative="1" as="geometry">
            <mxPoint x="90" y="760" as="sourcePoint" />
            <Array as="points">
              <mxPoint x="180" y="760" />
            </Array>
          </mxGeometry>
        </mxCell>
        <mxCell id="EQ3Dm5uXD2tHN3N2Dx7K-69" value="UpdateTrafficLightsResponse" style="html=1;verticalAlign=bottom;endArrow=open;edgeStyle=elbowEdgeStyle;elbow=vertical;curved=0;rounded=0;dashed=1;strokeWidth=1.2;endFill=0;" edge="1" parent="1" source="aM9ryv3xv72pqoxQDRHE-5">
          <mxGeometry relative="1" as="geometry">
            <mxPoint x="270" y="790" as="sourcePoint" />
            <Array as="points">
              <mxPoint x="210" y="790.07" />
            </Array>
            <mxPoint x="90" y="790" as="targetPoint" />
          </mxGeometry>
        </mxCell>
        <mxCell id="aM9ryv3xv72pqoxQDRHE-7" value="InitializeRequest" style="html=1;verticalAlign=bottom;endArrow=classicThin;edgeStyle=elbowEdgeStyle;elbow=vertical;curved=0;rounded=0;endFill=1;" parent="1" source="aM9ryv3xv72pqoxQDRHE-1" target="aM9ryv3xv72pqoxQDRHE-6" edge="1">
          <mxGeometry relative="1" as="geometry">
            <mxPoint x="99.81034482758605" y="40.069999999999936" as="sourcePoint" />
            <Array as="points">
              <mxPoint x="190" y="40.06999999999999" />
            </Array>
          </mxGeometry>
        </mxCell>
        <mxCell id="EQ3Dm5uXD2tHN3N2Dx7K-76" value="AttachOccupancyGridSensorRequest" style="html=1;verticalAlign=bottom;endArrow=classicThin;edgeStyle=elbowEdgeStyle;elbow=vertical;curved=0;rounded=0;endFill=1;fillColor=#f8cecc;strokeColor=#b85450;strokeWidth=1.2;" edge="1" parent="1" target="EQ3Dm5uXD2tHN3N2Dx7K-74" source="aM9ryv3xv72pqoxQDRHE-1">
          <mxGeometry relative="1" as="geometry">
            <mxPoint x="120" y="290" as="sourcePoint" />
            <Array as="points">
              <mxPoint x="218" y="290" />
            </Array>
          </mxGeometry>
        </mxCell>
        <mxCell id="EQ3Dm5uXD2tHN3N2Dx7K-14" value="AttachDetectionSensorRequest" style="html=1;verticalAlign=bottom;endArrow=classicThin;edgeStyle=elbowEdgeStyle;elbow=vertical;curved=0;rounded=0;endFill=1;fillColor=#f8cecc;strokeColor=#b85450;strokeWidth=1.2;" edge="1" parent="1" target="EQ3Dm5uXD2tHN3N2Dx7K-12" source="aM9ryv3xv72pqoxQDRHE-1">
          <mxGeometry relative="1" as="geometry">
            <mxPoint x="120" y="230" as="sourcePoint" />
            <Array as="points">
              <mxPoint x="220" y="230" />
            </Array>
          </mxGeometry>
        </mxCell>
        <mxCell id="EQ3Dm5uXD2tHN3N2Dx7K-10" value="AttachLidarSensorRequest" style="html=1;verticalAlign=bottom;endArrow=classicThin;edgeStyle=elbowEdgeStyle;elbow=vertical;curved=0;rounded=0;endFill=1;fillColor=#f8cecc;strokeColor=#b85450;strokeWidth=1.2;" edge="1" parent="1" target="EQ3Dm5uXD2tHN3N2Dx7K-9" source="aM9ryv3xv72pqoxQDRHE-1">
          <mxGeometry relative="1" as="geometry">
            <mxPoint x="119.82352941176464" y="170" as="sourcePoint" />
            <Array as="points">
              <mxPoint x="210" y="170" />
            </Array>
          </mxGeometry>
        </mxCell>
        <mxCell id="aM9ryv3xv72pqoxQDRHE-9" value="InitializeResponse" style="html=1;verticalAlign=bottom;endArrow=open;edgeStyle=elbowEdgeStyle;elbow=vertical;curved=0;rounded=0;dashed=1;strokeWidth=1.2;endFill=0;" parent="1" source="aM9ryv3xv72pqoxQDRHE-6" target="aM9ryv3xv72pqoxQDRHE-1" edge="1">
          <mxGeometry relative="1" as="geometry">
            <mxPoint x="280" y="70" as="sourcePoint" />
            <Array as="points">
              <mxPoint x="210" y="70" />
            </Array>
            <mxPoint x="119.81034482758628" y="70.07" as="targetPoint" />
          </mxGeometry>
        </mxCell>
        <mxCell id="EQ3Dm5uXD2tHN3N2Dx7K-63" value="DespawnEntityRequest" style="html=1;verticalAlign=bottom;endArrow=classicThin;edgeStyle=elbowEdgeStyle;elbow=vertical;curved=0;rounded=0;endFill=1;strokeWidth=1.2;" edge="1" parent="1" target="EQ3Dm5uXD2tHN3N2Dx7K-64">
          <mxGeometry relative="1" as="geometry">
            <mxPoint x="90.16666666666674" y="849.17" as="sourcePoint" />
            <Array as="points">
              <mxPoint x="210" y="849.17" />
            </Array>
          </mxGeometry>
        </mxCell>
        <mxCell id="EQ3Dm5uXD2tHN3N2Dx7K-80" value="Send Entity Status" style="html=1;verticalAlign=bottom;endArrow=classicThin;edgeStyle=elbowEdgeStyle;elbow=vertical;curved=0;rounded=0;endFill=1;fillColor=#e1d5e7;strokeColor=#9673a6;" edge="1" parent="1" source="EQ3Dm5uXD2tHN3N2Dx7K-43" target="EQ3Dm5uXD2tHN3N2Dx7K-60">
          <mxGeometry x="0.002" relative="1" as="geometry">
            <mxPoint x="323" y="610" as="sourcePoint" />
            <Array as="points">
              <mxPoint x="410" y="630" />
            </Array>
            <mxPoint x="450" y="610" as="targetPoint" />
            <mxPoint as="offset" />
          </mxGeometry>
        </mxCell>
        <mxCell id="EQ3Dm5uXD2tHN3N2Dx7K-82" value="Send Entity Sensors Data" style="html=1;verticalAlign=bottom;endArrow=classicThin;edgeStyle=elbowEdgeStyle;elbow=vertical;curved=0;rounded=0;endFill=1;fillColor=#f8cecc;strokeColor=#b85450;" edge="1" parent="1" source="EQ3Dm5uXD2tHN3N2Dx7K-43" target="EQ3Dm5uXD2tHN3N2Dx7K-60">
          <mxGeometry relative="1" as="geometry">
            <mxPoint x="305" y="640" as="sourcePoint" />
            <Array as="points">
              <mxPoint x="410" y="680" />
            </Array>
            <mxPoint x="450" y="640" as="targetPoint" />
          </mxGeometry>
        </mxCell>
      </root>
    </mxGraphModel>
  </diagram>
</mxfile>
